<?xml version="1.0" standalone="no"?>
<!DOCTYPE svg PUBLIC "-//W3C//DTD SVG 20010904//EN"
 "http://www.w3.org/TR/2001/REC-SVG-20010904/DTD/svg10.dtd">
<svg version="1.0" xmlns="http://www.w3.org/2000/svg"
 width="412.000000pt" height="412.000000pt" viewBox="0 0 412.000000 412.000000"
 preserveAspectRatio="xMidYMid meet">
<metadata>
Created by potrace 1.14, written by Peter Selinger 2001-2017
</metadata>
<g transform="translate(0.000000,412.000000) scale(0.100000,-0.100000)"
fill="#000000" stroke="none">
<path d="M2012 3843 c-7 -7 -10 -13 -7 -13 4 0 -3 -13 -15 -30 -12 -16 -18
-30 -15 -30 4 0 1 -10 -7 -22 -14 -21 -36 -78 -40 -103 0 -5 -7 -24 -14 -41
-7 -17 -10 -34 -7 -38 4 -3 2 -6 -4 -6 -5 0 -10 -6 -11 -12 -3 -24 -12 -73
-36 -185 -13 -62 -27 -129 -30 -150 -3 -21 -5 -39 -6 -41 0 -4 -25 3 -30 8
-13 15 -70 51 -70 44 0 -3 -6 -2 -13 4 -36 30 -55 -40 -51 -188 3 -118 -1
-140 -23 -140 -16 0 -63 24 -102 53 -13 9 -32 17 -42 17 -11 0 -19 4 -19 9 0
16 -40 -1 -41 -18 -4 -65 29 -202 52 -216 5 -4 9 -15 9 -26 0 -10 4 -19 8 -19
5 0 16 -15 25 -32 22 -42 38 -68 56 -87 12 -14 11 -16 -10 -22 -13 -3 -28 -3
-34 2 -9 6 -139 5 -195 -3 -44 -6 -34 -32 25 -71 30 -21 55 -34 55 -31 0 4 8
0 18 -9 10 -10 22 -14 25 -10 4 3 7 1 7 -5 0 -7 6 -12 14 -12 7 0 26 -10 42
-22 16 -13 30 -21 32 -19 7 7 92 -70 92 -83 0 -15 -27 -29 -40 -21 -5 3 -11 1
-15 -5 -3 -5 -15 -10 -26 -10 -10 0 -19 -4 -19 -10 0 -5 -6 -10 -13 -10 -26 0
-13 -30 29 -70 24 -22 46 -40 51 -40 4 0 22 -14 40 -30 18 -17 36 -30 42 -30
5 0 11 -4 13 -8 2 -4 37 -34 78 -67 144 -113 163 -151 135 -260 -16 -59 -64
-155 -91 -183 -12 -11 -14 -8 -14 23 0 20 -12 71 -26 113 -51 154 -137 299
-236 404 -16 16 -28 33 -28 38 0 6 -3 9 -7 8 -5 -1 -24 13 -44 32 -71 70 -148
124 -209 150 -14 5 -33 14 -42 20 -11 6 -19 6 -23 0 -10 -16 24 -69 80 -128
30 -30 53 -58 51 -61 -2 -3 -45 -6 -95 -5 -79 0 -91 -2 -91 -17 0 -26 234
-259 260 -259 6 0 8 -4 5 -10 -3 -5 1 -10 9 -10 8 0 19 -6 23 -12 8 -14 130
-108 138 -108 3 0 13 -8 24 -17 10 -10 39 -35 64 -56 50 -42 83 -100 92 -162
3 -22 9 -53 12 -70 4 -16 7 -37 8 -45 1 -8 6 -41 10 -73 5 -38 4 -57 -3 -57
-6 0 -14 5 -17 10 -3 6 -12 10 -19 10 -8 0 -30 7 -50 15 -20 8 -38 15 -41 15
-9 1 -89 45 -129 72 -42 29 -92 94 -121 157 -10 23 -23 41 -30 41 -12 0 -42
-32 -60 -64 -5 -10 -14 -18 -20 -18 -16 -1 -42 60 -59 137 -9 39 -23 102 -32
140 -8 39 -17 79 -19 90 -5 34 -36 119 -51 142 -8 12 -14 29 -14 38 0 8 -4 15
-8 15 -5 0 -15 12 -22 26 l-14 25 -18 -23 c-10 -13 -18 -28 -18 -34 0 -20 -45
-121 -65 -148 -11 -14 -24 -26 -30 -26 -6 0 -23 26 -38 58 -37 77 -77 150
-105 189 -12 17 -22 34 -22 37 0 4 -4 12 -10 19 -5 7 -29 37 -52 67 -85 111
-85 111 -130 35 -30 -50 -33 -53 -48 -37 -8 9 -21 28 -28 42 -35 68 -111 170
-169 226 -47 46 -74 49 -95 10 -18 -34 -22 -73 -22 -236 1 -160 4 -191 34
-316 13 -57 14 -76 5 -84 -6 -5 -15 -7 -19 -3 -11 11 -35 14 -145 19 -90 3
-102 2 -91 -11 7 -8 9 -15 6 -15 -15 0 92 -129 176 -213 48 -48 88 -86 88 -83
0 5 95 -64 164 -119 l30 -23 -32 1 c-18 1 -32 5 -32 9 0 4 -8 7 -17 7 -33 0
-80 8 -92 15 -6 4 -11 4 -11 -1 0 -4 -21 -7 -46 -7 -77 2 -144 -25 -144 -58 0
-7 32 -35 71 -63 38 -27 75 -54 82 -60 25 -21 235 -123 241 -118 3 4 6 1 6 -6
0 -8 7 -11 15 -7 8 3 15 1 15 -4 0 -6 11 -10 25 -10 14 0 25 -4 25 -8 0 -5 24
-14 53 -21 28 -8 57 -16 62 -20 6 -3 12 -6 15 -6 19 -3 77 -18 84 -23 7 -4
-58 -72 -69 -72 -14 0 -125 -104 -125 -117 0 -18 49 -24 220 -29 91 -2 168 -4
173 -4 13 0 7 -15 -16 -40 -33 -36 -39 -57 -19 -66 22 -9 95 -5 110 6 1 2 10
3 20 5 9 1 24 4 32 8 51 19 109 34 114 29 3 -3 6 0 6 6 0 7 8 12 18 12 10 0
28 7 40 16 12 8 22 13 22 10 0 -3 16 3 35 14 51 29 60 25 35 -15 -21 -35 -35
-121 -24 -150 5 -11 12 -11 44 0 21 7 53 21 71 31 19 10 37 18 41 19 4 0 14 9
22 20 9 11 16 16 16 12 0 -9 120 114 120 124 0 3 9 17 21 30 12 13 34 43 51
67 33 47 48 51 96 22 l33 -20 -15 27 c-44 85 -145 132 -293 136 -29 1 -53 4
-53 7 0 3 -28 6 -63 7 -82 3 -109 7 -124 16 -7 5 -13 6 -13 3 0 -6 -85 19
-136 40 -22 9 -40 15 -40 13 -1 -2 -11 4 -21 14 -11 9 -23 14 -26 11 -4 -4 -9
1 -13 10 -3 9 -10 14 -14 11 -5 -3 -16 2 -24 11 -9 8 -16 13 -16 9 0 -4 -7 1
-16 9 -8 9 -22 16 -30 16 -8 0 -14 5 -14 10 0 6 -7 10 -15 10 -8 0 -15 5 -15
10 0 6 -5 10 -11 10 -10 0 -51 28 -108 75 -44 36 -147 141 -177 181 -16 21
-31 41 -35 44 -10 9 -69 98 -69 105 0 3 -10 19 -22 35 -12 16 -18 33 -14 37 4
4 9 -3 13 -15 3 -12 9 -22 13 -22 4 0 20 -19 35 -42 15 -24 34 -50 42 -58 7
-8 30 -35 51 -59 62 -75 220 -221 237 -221 6 0 17 -9 25 -20 8 -11 18 -20 22
-20 4 0 31 -15 60 -33 63 -39 171 -87 199 -87 10 0 19 -4 19 -8 0 -4 8 -8 18
-9 9 0 53 -3 97 -7 44 -3 132 -8 195 -10 63 -2 126 -8 140 -14 14 -5 28 -10
33 -11 18 -2 65 -31 90 -57 35 -35 88 -127 90 -156 0 -13 4 -25 7 -28 18 -14
37 -143 35 -230 -4 -119 -25 -214 -82 -353 -24 -60 -42 -111 -40 -113 2 -3
112 -3 245 -2 l241 3 -29 58 c-26 52 -50 113 -51 127 0 3 -6 12 -13 20 -10 13
-30 80 -53 175 -11 49 -9 193 3 247 19 82 66 169 119 221 45 45 132 94 182
103 14 3 30 7 35 10 10 6 49 14 93 19 17 2 30 4 30 5 0 3 51 8 112 12 29 2 53
7 53 11 0 5 4 5 10 2 5 -3 29 0 52 6 24 7 55 12 71 12 15 0 27 3 27 7 0 4 6 7
13 8 31 2 73 14 86 25 8 7 15 10 15 8 3 -11 124 56 143 79 7 8 13 11 13 7 0
-4 11 3 24 17 13 15 26 26 30 26 15 0 175 175 241 265 104 140 108 145 87 105
-25 -45 -93 -154 -102 -160 -4 -3 -9 -10 -11 -16 -13 -37 -245 -276 -265 -274
-3 1 -13 -7 -22 -17 -21 -23 -122 -86 -122 -75 0 4 -4 2 -8 -4 -13 -19 -190
-82 -214 -76 -5 1 -8 -3 -8 -9 0 -5 -4 -8 -9 -4 -6 3 -29 1 -53 -5 -24 -6 -52
-13 -63 -15 -11 -2 -33 -6 -50 -9 -16 -4 -46 -9 -65 -12 -67 -10 -75 -12 -105
-24 -16 -6 -31 -11 -33 -11 -5 2 -66 -32 -77 -43 -6 -6 -23 -28 -39 -48 -24
-32 -26 -39 -12 -44 9 -3 16 -12 16 -20 0 -8 4 -14 9 -14 5 0 11 -8 14 -17 17
-53 123 -183 149 -183 5 0 7 -4 4 -9 -3 -5 5 -12 18 -15 14 -3 31 -12 38 -19
17 -18 117 -51 126 -42 13 13 6 101 -12 138 -10 21 -16 40 -13 43 6 6 48 -16
59 -31 4 -5 8 -6 8 -2 0 5 12 1 28 -7 38 -22 81 -39 130 -50 9 -3 17 -5 17 -6
0 -2 25 -8 65 -16 49 -9 65 -12 68 -14 2 -2 43 -3 68 -1 20 1 11 34 -23 78
-13 18 -20 33 -16 34 37 4 93 3 93 -3 0 -3 8 -4 18 -2 9 2 64 5 122 8 92 4
159 12 167 20 11 11 -154 159 -173 155 -12 -2 -26 30 -19 42 4 6 13 8 21 5 8
-3 14 -2 14 3 0 7 26 15 80 25 3 1 10 4 16 8 6 4 23 9 38 12 15 3 33 9 39 14
7 5 27 13 45 17 17 3 32 11 32 15 0 5 6 7 14 4 8 -3 17 0 21 5 3 6 11 9 16 6
5 -4 9 -1 9 4 0 6 5 11 10 11 16 0 144 63 152 75 5 6 8 7 8 0 0 -6 3 -6 8 0 4
6 27 23 52 37 25 15 55 36 67 47 12 12 28 21 34 21 7 0 10 3 6 6 -3 4 0 13 8
21 21 20 19 31 -7 39 -13 4 -26 11 -29 16 -3 5 -29 10 -57 11 -29 1 -52 6 -52
10 0 5 -5 5 -11 2 -6 -4 -31 -9 -57 -11 -26 -2 -58 -6 -72 -10 -96 -24 -96
-21 -7 44 143 104 175 130 226 182 30 30 81 91 113 135 70 95 67 100 -60 91
-118 -8 -116 -8 -128 -17 -23 -18 -32 14 -21 71 6 30 14 57 17 60 10 9 17 363
8 420 -9 57 -21 94 -34 107 -16 17 -17 17 -45 -8 -13 -11 -29 -24 -35 -27 -18
-12 -120 -150 -155 -213 -19 -32 -37 -59 -41 -59 -4 0 -23 25 -43 55 -33 48
-38 53 -56 42 -10 -6 -19 -15 -19 -19 0 -5 -8 -16 -17 -26 -38 -39 -71 -84
-108 -143 -32 -53 -106 -190 -119 -221 -30 -72 -44 -63 -112 79 -24 51 -47 93
-50 93 -3 0 -11 -6 -17 -12 -19 -20 -68 -98 -62 -98 3 0 -1 -12 -9 -27 -14
-28 -41 -138 -51 -210 -4 -21 -8 -46 -11 -55 -3 -9 -7 -25 -9 -35 -14 -61 -24
-92 -39 -128 l-17 -39 -48 54 -49 55 -22 -50 c-12 -28 -29 -63 -37 -79 -18
-32 -88 -106 -102 -106 -4 0 -20 -9 -34 -20 -15 -12 -29 -21 -32 -21 -2 0 -41
-17 -86 -39 -45 -22 -85 -37 -90 -35 -4 3 -6 20 -3 38 2 17 6 52 9 76 7 61 35
178 50 215 15 35 43 66 99 111 20 17 45 38 54 48 9 9 21 17 27 17 5 0 27 16
49 35 21 19 41 35 45 35 4 0 23 16 44 36 20 20 37 34 37 30 0 -8 65 52 161
149 44 44 78 87 77 95 -3 12 -21 15 -88 16 -47 0 -93 -4 -102 -8 -25 -12 -22
-1 7 34 14 16 25 27 25 23 0 -4 12 8 28 27 15 18 30 35 35 36 4 2 16 21 26 42
l18 38 -23 -2 c-13 0 -24 -4 -24 -8 0 -3 -14 -9 -31 -13 -17 -4 -33 -13 -36
-21 -3 -8 -11 -14 -18 -14 -8 0 -21 -8 -31 -17 -10 -10 -21 -18 -25 -18 -4 0
-19 -10 -33 -22 -15 -13 -31 -23 -37 -23 -5 0 -7 -4 -4 -10 3 -5 1 -10 -4 -10
-14 0 -87 -76 -160 -166 -35 -44 -131 -218 -131 -239 0 -8 -5 -15 -10 -15 -6
0 -9 -3 -8 -7 1 -5 -8 -39 -20 -76 -12 -38 -20 -72 -18 -76 2 -3 -2 -17 -9
-31 -13 -24 -14 -24 -21 -5 -5 11 -20 38 -35 60 -26 40 -79 133 -78 138 0 1
-5 16 -11 32 -7 17 -14 41 -16 54 -3 14 -7 28 -9 31 -5 8 -12 49 -19 115 -5
42 0 33 30 -58 l36 -107 93 95 c51 52 97 95 102 95 5 0 19 10 30 23 24 26 73
67 73 62 0 -2 10 6 23 18 13 12 41 37 63 55 l39 33 -23 18 c-13 9 -38 17 -55
16 -119 -4 -61 81 115 169 53 27 106 57 117 68 12 10 21 16 21 13 0 -3 10 3
21 14 20 18 20 21 6 36 -9 9 -19 15 -22 15 -25 -3 -105 15 -105 24 0 7 -3 7
-8 1 -4 -5 -27 -11 -51 -13 -24 -1 -51 -7 -61 -12 -10 -5 -20 -7 -23 -3 -6 5
10 43 22 53 13 11 61 87 61 97 0 6 10 23 23 39 12 16 21 29 19 29 -2 0 -1 7 1
15 43 138 41 213 -5 189 -10 -6 -18 -8 -18 -5 0 3 -24 -11 -52 -30 -62 -41
-95 -51 -111 -35 -8 8 -13 57 -14 139 -1 134 -14 186 -45 188 -10 1 -18 -2
-18 -6 0 -4 -18 -15 -40 -25 -22 -10 -40 -22 -40 -27 0 -4 -7 -8 -15 -8 -8 0
-14 3 -14 8 1 4 0 9 -1 12 -2 5 -5 24 -14 85 -12 83 -14 94 -21 115 -6 20 -10
37 -19 92 -1 10 -5 21 -9 24 -4 4 -7 17 -7 28 0 12 -6 33 -14 48 -11 20 -11
28 -3 32 9 3 8 5 0 5 -7 1 -16 19 -19 41 -4 22 -10 38 -14 35 -7 -4 -24 51
-21 68 0 4 -3 7 -9 7 -5 0 -9 3 -8 8 2 4 -6 21 -16 39 -21 35 -55 47 -74 26z
m25 -968 c0 -8 -4 -12 -9 -9 -5 3 -6 10 -3 15 9 13 12 11 12 -6z m-11 -72 c-4
-27 -9 -176 -12 -332 -6 -240 -4 -282 7 -275 11 6 12 5 3 -7 -7 -8 -10 -27 -8
-44 2 -16 6 -66 9 -110 9 -116 44 -341 62 -394 8 -25 35 -84 58 -131 36 -72
43 -94 43 -145 -1 -69 -12 -106 -72 -230 -24 -49 -52 -111 -61 -137 l-18 -48
-23 68 c-13 37 -28 76 -32 87 -37 83 -47 107 -64 160 -11 33 -19 84 -19 114 0
49 23 141 41 166 13 19 41 122 42 156 1 34 -10 155 -19 194 -21 104 -20 461 3
625 3 25 7 61 9 80 1 19 4 35 5 35 1 0 4 22 7 50 2 27 8 52 11 55 6 5 10 29
13 88 1 12 6 22 11 22 6 0 8 -19 4 -47z"/>
<path d="M810 3560 c-8 -6 -12 -10 -8 -10 4 0 -1 -20 -12 -44 -10 -24 -16 -46
-14 -49 9 -8 -89 -35 -144 -39 -14 -1 2 -18 59 -61 36 -27 36 -29 33 -87 -2
-35 0 -60 6 -60 6 0 26 17 45 37 40 42 62 49 87 26 10 -9 18 -13 18 -8 0 4 7
2 15 -5 8 -6 18 -9 24 -6 5 3 11 0 14 -6 2 -7 8 -9 13 -5 4 4 2 22 -5 40 -7
18 -13 37 -15 44 -1 7 -5 16 -9 19 -14 14 -6 33 27 68 29 29 32 36 18 40 -9 3
-26 4 -37 2 -37 -6 -57 10 -79 62 -17 40 -25 49 -36 42z"/>
<path d="M3221 3520 c-23 -54 -40 -66 -86 -64 -46 2 -49 -6 -16 -40 34 -35 35
-51 8 -105 -30 -61 -21 -70 46 -43 71 29 77 28 124 -23 l43 -48 1 29 c1 16 0
45 -1 64 -1 26 6 43 23 62 14 15 28 24 31 21 3 -4 6 -2 6 4 0 6 10 13 22 17
33 8 10 27 -38 31 -22 1 -40 4 -41 5 -2 1 -6 3 -10 4 -23 5 -44 25 -46 44 -1
12 -5 22 -9 22 -4 0 -8 8 -8 18 0 9 -7 25 -14 35 -12 16 -15 13 -35 -33z"/>
<path d="M1143 2970 c-29 -35 -74 -54 -128 -56 -27 -1 -54 -2 -59 -3 -11 -1
29 -41 41 -41 14 -1 44 -49 49 -78 6 -35 25 -82 33 -82 3 1 18 18 33 39 25 36
30 39 72 38 25 -1 46 -5 46 -8 0 -3 7 -6 15 -6 8 0 15 4 15 9 0 4 -5 8 -11 8
-5 0 -7 5 -4 10 3 6 2 10 -3 10 -5 0 -22 18 -37 41 -20 28 -29 53 -29 84 -1
54 -9 63 -33 35z"/>
<path d="M2894 2975 c-4 -8 -4 -25 -1 -37 3 -12 0 -36 -8 -54 -13 -31 -21 -44
-52 -79 -15 -16 -6 -48 11 -38 6 4 14 8 19 9 4 1 8 2 10 4 1 1 15 3 31 4 22 1
35 -6 59 -36 17 -21 33 -38 36 -38 4 0 12 26 20 58 10 42 22 66 49 92 20 19
39 34 42 33 4 -1 7 4 7 10 0 9 -18 12 -56 12 -61 -1 -86 8 -132 49 -24 22 -30
24 -35 11z"/>
<path d="M705 2860 c-4 -11 -21 -27 -38 -34 -18 -8 -25 -15 -16 -15 19 -1 62
-45 52 -54 -3 -4 1 -7 10 -7 9 0 22 10 28 23 15 27 30 38 46 32 7 -2 10 2 7
10 -3 8 -15 15 -27 17 -12 2 -26 13 -32 26 -12 27 -22 28 -30 2z"/>
<path d="M3327 2857 c-9 -14 -26 -28 -37 -32 -16 -5 -17 -9 -7 -20 6 -7 15
-11 18 -9 3 2 12 -8 19 -21 15 -27 40 -34 40 -11 0 18 29 48 39 42 4 -3 8 1 8
9 0 8 -8 15 -16 15 -9 0 -23 12 -32 26 l-16 26 -16 -25z"/>
<path d="M859 2528 c0 -2 -2 -11 -5 -20 -2 -10 -6 -26 -8 -35 -3 -10 -5 -21
-5 -25 -1 -4 -7 -5 -15 -2 -8 3 -17 1 -20 -5 -4 -6 -13 -8 -21 -4 -8 3 -15 0
-15 -7 0 -6 9 -14 20 -17 11 -3 20 -12 20 -20 0 -8 5 -11 10 -8 6 3 10 3 11
-2 8 -76 20 -93 43 -58 12 18 23 25 34 20 58 -23 77 -14 57 26 -15 27 -14 31
7 59 26 35 21 43 -30 45 -50 3 -52 3 -52 16 0 9 -29 45 -31 37z"/>
<path d="M3196 2500 c-23 -26 -33 -31 -61 -27 -45 6 -49 0 -24 -35 20 -28 21
-50 4 -90 -6 -15 -1 -17 39 -14 35 3 48 0 56 -12 5 -10 10 -12 10 -7 0 6 5 3
10 -5 8 -13 10 -12 11 5 1 11 3 25 3 31 2 20 37 65 46 59 6 -4 10 -4 10 -1 0
2 3 11 6 20 5 12 -1 16 -25 16 -28 0 -32 4 -44 45 l-13 46 -28 -31z"/>
</g>
</svg>
